<?xml version="1.0" encoding="UTF-8" standalone="no"?>
<!DOCTYPE svg PUBLIC "-//W3C//DTD SVG 1.1//EN"
 "http://www.w3.org/Graphics/SVG/1.1/DTD/svg11.dtd">
<!-- Generated by graphviz version 2.43.0 (0)
 -->
<!-- Title: OmniAgentDaemonArchitecture Pages: 1 -->
<svg width="976pt" height="559pt"
 viewBox="0.00 0.00 976.00 559.00" xmlns="http://www.w3.org/2000/svg" xmlns:xlink="http://www.w3.org/1999/xlink">
<g id="graph0" class="graph" transform="scale(1 1) rotate(0) translate(36 523)">
<title>OmniAgentDaemonArchitecture</title>
<polygon fill="white" stroke="transparent" points="-36,36 -36,-523 940,-523 940,36 -36,36"/>
<text text-anchor="middle" x="452" y="-467" font-family="Noto Sans CJK SC,WenQuanYi Micro Hei,sans-serif" font-size="20.00">Omni Agent 整体架构</text>
<g id="clust2" class="cluster">
<title>cluster_config</title>
<path fill="#fffbeb" stroke="#fde68a" d="M185.5,-242C185.5,-242 529.5,-242 529.5,-242 535.5,-242 541.5,-248 541.5,-254 541.5,-254 541.5,-362 541.5,-362 541.5,-368 535.5,-374 529.5,-374 529.5,-374 185.5,-374 185.5,-374 179.5,-374 173.5,-368 173.5,-362 173.5,-362 173.5,-254 173.5,-254 173.5,-248 179.5,-242 185.5,-242"/>
<text text-anchor="middle" x="250.5" y="-358.8" font-family="Noto Sans CJK SC,WenQuanYi Micro Hei,sans-serif" font-size="14.00" fill="#a16207">配置层 &#160;Configuration</text>
</g>
<g id="clust3" class="cluster">
<title>cluster_control</title>
<path fill="#fff7ed" stroke="#fed7aa" d="M185.5,-93C185.5,-93 529.5,-93 529.5,-93 535.5,-93 541.5,-99 541.5,-105 541.5,-105 541.5,-213 541.5,-213 541.5,-219 535.5,-225 529.5,-225 529.5,-225 185.5,-225 185.5,-225 179.5,-225 173.5,-219 173.5,-213 173.5,-213 173.5,-105 173.5,-105 173.5,-99 179.5,-93 185.5,-93"/>
<text text-anchor="middle" x="230" y="-209.8" font-family="Noto Sans CJK SC,WenQuanYi Micro Hei,sans-serif" font-size="14.00" fill="#9a3412">控制层 &#160;Control</text>
</g>
<!-- user -->
<g id="node1" class="node">
<title>user</title>
<path fill="#ffffff" stroke="#cbd5e1" stroke-width="1.1" d="M490,-457C490,-457 225,-457 225,-457 219,-457 213,-451 213,-445 213,-445 213,-419 213,-419 213,-413 219,-407 225,-407 225,-407 490,-407 490,-407 496,-407 502,-413 502,-419 502,-419 502,-445 502,-445 502,-451 496,-457 490,-457"/>
<text text-anchor="middle" x="357.5" y="-435.4" font-family="Noto Sans CJK SC,WenQuanYi Micro Hei,sans-serif" font-size="12.00" fill="#0f172a">用户 CLI</text>
<text text-anchor="middle" x="357.5" y="-422.4" font-family="Noto Sans CJK SC,WenQuanYi Micro Hei,sans-serif" font-size="12.00" fill="#0f172a">voice_chat_daemon start / stop / status / logs</text>
</g>
<!-- register -->
<g id="node2" class="node">
<title>register</title>
<path fill="#ffffff" stroke="#cbd5e1" stroke-width="1.1" stroke-dasharray="5,2" d="M746,-457C746,-457 593,-457 593,-457 587,-457 581,-451 581,-445 581,-445 581,-419 581,-419 581,-413 587,-407 593,-407 593,-407 746,-407 746,-407 752,-407 758,-413 758,-419 758,-419 758,-445 758,-445 758,-451 752,-457 746,-457"/>
<text text-anchor="middle" x="669.5" y="-435.4" font-family="Noto Sans CJK SC,WenQuanYi Micro Hei,sans-serif" font-size="12.00" fill="#475569">register_speaker</text>
<text text-anchor="middle" x="669.5" y="-422.4" font-family="Noto Sans CJK SC,WenQuanYi Micro Hei,sans-serif" font-size="12.00" fill="#475569">声纹注册（一次性，旁路）</text>
</g>
<!-- user&#45;&gt;register -->
<g id="edge9" class="edge">
<title>user&#45;&gt;register</title>
<path fill="none" stroke="#94a3b8" stroke-width="1.1" stroke-dasharray="5,2" d="M502.01,-432C531.21,-432 565.5,-432 565.5,-432 565.5,-432 568,-432 572.23,-432"/>
<polygon fill="#94a3b8" stroke="#94a3b8" stroke-width="1.1" points="572.35,-434.98 580.85,-432 572.35,-429.03 572.35,-434.98"/>
</g>
<!-- config -->
<g id="node3" class="node">
<title>config</title>
<polygon fill="#fef9c3" stroke="#ca8a04" stroke-width="1.1" points="517,-310 192,-310 192,-260 523,-260 523,-304 517,-310"/>
<polyline fill="none" stroke="#ca8a04" stroke-width="1.1" points="517,-310 517,-304 "/>
<polyline fill="none" stroke="#ca8a04" stroke-width="1.1" points="523,-304 517,-304 "/>
<text text-anchor="middle" x="357.5" y="-288.4" font-family="Noto Sans CJK SC,WenQuanYi Micro Hei,sans-serif" font-size="12.00" fill="#0f172a">~/.config/omni_agent/ &#160;&#160;5 个 JSON</text>
<text text-anchor="middle" x="357.5" y="-275.4" font-family="Noto Sans CJK SC,WenQuanYi Micro Hei,sans-serif" font-size="12.00" fill="#0f172a">voice_chat · llm · voiceprint · mcp · aec</text>
</g>
<!-- user&#45;&gt;config -->
<g id="edge1" class="edge">
<title>user&#45;&gt;config</title>
<path fill="none" stroke="#64748b" stroke-width="1.1" d="M357.5,-406.73C357.5,-399.61 357.5,-391.36 357.5,-382.57"/>
<polygon fill="#64748b" stroke="#64748b" stroke-width="1.1" points="360.48,-382.5 357.5,-374 354.53,-382.5 360.48,-382.5"/>
</g>
<!-- daemon -->
<g id="node4" class="node">
<title>daemon</title>
<path fill="#fed7aa" stroke="#ea580c" stroke-width="1.8" d="M511,-161C511,-161 204,-161 204,-161 198,-161 192,-155 192,-149 192,-149 192,-123 192,-123 192,-117 198,-111 204,-111 204,-111 511,-111 511,-111 517,-111 523,-117 523,-123 523,-123 523,-149 523,-149 523,-155 517,-161 511,-161"/>
<text text-anchor="start" x="298.5" y="-138.4" font-family="Noto Sans CJK SC,WenQuanYi Micro Hei,sans-serif" font-weight="bold" font-size="12.00" fill="#0f172a">voice_chat_daemon</text>
<text text-anchor="start" x="294" y="-128" font-family="Noto Sans CJK SC,WenQuanYi Micro Hei,sans-serif" font-size="10.00" fill="#0f172a">读配置 · 守护子进程 · 日志</text>
</g>
<!-- config&#45;&gt;daemon -->
<g id="edge2" class="edge">
<title>config&#45;&gt;daemon</title>
<path fill="none" stroke="#64748b" stroke-width="1.1" d="M357.5,-259.73C357.5,-252.07 357.5,-243.09 357.5,-233.53"/>
<polygon fill="#64748b" stroke="#64748b" stroke-width="1.1" points="360.48,-233.5 357.5,-225 354.53,-233.5 360.48,-233.5"/>
</g>
<!-- llama -->
<g id="node5" class="node">
<title>llama</title>
<path fill="#dcfce7" stroke="#16a34a" stroke-width="1.1" d="M432,-50C432,-50 283,-50 283,-50 277,-50 271,-44 271,-38 271,-38 271,-12 271,-12 271,-6 277,0 283,0 283,0 432,0 432,0 438,0 444,-6 444,-12 444,-12 444,-38 444,-38 444,-44 438,-50 432,-50"/>
<text text-anchor="middle" x="357.5" y="-28.4" font-family="Noto Sans CJK SC,WenQuanYi Micro Hei,sans-serif" font-size="12.00" fill="#0f172a">llama&#45;server</text>
<text text-anchor="middle" x="357.5" y="-15.4" font-family="Noto Sans CJK SC,WenQuanYi Micro Hei,sans-serif" font-size="12.00" fill="#0f172a">本地 LLM 推理</text>
</g>
<!-- daemon&#45;&gt;llama -->
<g id="edge3" class="edge">
<title>daemon&#45;&gt;llama</title>
<path fill="none" stroke="#64748b" stroke-width="1.1" d="M357.5,-110.81C357.5,-95.57 357.5,-75.69 357.5,-59.01"/>
<polygon fill="#64748b" stroke="#64748b" stroke-width="1.1" points="360.48,-58.62 357.5,-50.12 354.53,-58.62 360.48,-58.62"/>
</g>
<!-- voice -->
<g id="node6" class="node">
<title>voice</title>
<path fill="#dcfce7" stroke="#16a34a" stroke-width="1.1" d="M179,-50C179,-50 12,-50 12,-50 6,-50 0,-44 0,-38 0,-38 0,-12 0,-12 0,-6 6,0 12,0 12,0 179,0 179,0 185,0 191,-6 191,-12 191,-12 191,-38 191,-38 191,-44 185,-50 179,-50"/>
<text text-anchor="middle" x="95.5" y="-28.4" font-family="Noto Sans CJK SC,WenQuanYi Micro Hei,sans-serif" font-size="12.00" fill="#0f172a">voice_chat / voice_chat_aec</text>
<text text-anchor="middle" x="95.5" y="-15.4" font-family="Noto Sans CJK SC,WenQuanYi Micro Hei,sans-serif" font-size="12.00" fill="#0f172a">语音对话主程序</text>
</g>
<!-- daemon&#45;&gt;voice -->
<g id="edge4" class="edge">
<title>daemon&#45;&gt;voice</title>
<path fill="none" stroke="#64748b" stroke-width="1.1" d="M299.68,-110.94C258.91,-93.98 204.21,-71.23 161.69,-53.54"/>
<polygon fill="#64748b" stroke="#64748b" stroke-width="1.1" points="162.62,-50.7 153.63,-50.18 160.33,-56.19 162.62,-50.7"/>
</g>
<!-- mcp -->
<g id="node7" class="node">
<title>mcp</title>
<path fill="#dcfce7" stroke="#16a34a" stroke-width="1.1" d="M892,-50C892,-50 743,-50 743,-50 737,-50 731,-44 731,-38 731,-38 731,-12 731,-12 731,-6 737,0 743,0 743,0 892,0 892,0 898,0 904,-6 904,-12 904,-12 904,-38 904,-38 904,-44 898,-50 892,-50"/>
<text text-anchor="middle" x="817.5" y="-28.4" font-family="Noto Sans CJK SC,WenQuanYi Micro Hei,sans-serif" font-size="12.00" fill="#0f172a">MCP 服务</text>
<text text-anchor="middle" x="817.5" y="-15.4" font-family="Noto Sans CJK SC,WenQuanYi Micro Hei,sans-serif" font-size="12.00" fill="#0f172a">工具调用（可选）</text>
</g>
<!-- daemon&#45;&gt;mcp -->
<g id="edge5" class="edge">
<title>daemon&#45;&gt;mcp</title>
<path fill="none" stroke="#64748b" stroke-width="1.1" d="M459.02,-110.94C537.64,-92.31 645.76,-66.69 722.65,-48.47"/>
<polygon fill="#64748b" stroke="#64748b" stroke-width="1.1" points="723.35,-51.37 730.93,-46.51 721.97,-45.58 723.35,-51.37"/>
</g>
<!-- voice&#45;&gt;llama -->
<g id="edge6" class="edge">
<title>voice&#45;&gt;llama</title>
<path fill="none" stroke="#94a3b8" stroke-width="1.1" d="M191.21,-25C207.94,-25 245.34,-25 262.2,-25"/>
<polygon fill="#94a3b8" stroke="#94a3b8" stroke-width="1.1" points="262.22,-27.98 270.72,-25 262.22,-22.03 262.22,-27.98"/>
</g>
<!-- voice&#45;&gt;mcp -->
<g id="edge7" class="edge">
<title>voice&#45;&gt;mcp</title>
<path fill="none" stroke="#94a3b8" stroke-width="1.1" stroke-dasharray="5,2" d="M189.66,-50.02C231.08,-61.03 270.5,-71.5 270.5,-71.5 270.5,-71.5 691.5,-71.5 691.5,-71.5 691.5,-71.5 715.01,-62.82 741.72,-52.97"/>
<polygon fill="#94a3b8" stroke="#94a3b8" stroke-width="1.1" points="742.76,-55.75 749.71,-50.02 740.7,-50.17 742.76,-55.75"/>
</g>
<!-- cloud -->
<g id="node8" class="node">
<title>cloud</title>
<path fill="#f8fafc" stroke="#cbd5e1" stroke-width="1.1" stroke-dasharray="5,2" d="M679,-50C679,-50 496,-50 496,-50 490,-50 484,-44 484,-38 484,-38 484,-12 484,-12 484,-6 490,0 496,0 496,0 679,0 679,0 685,0 691,-6 691,-12 691,-12 691,-38 691,-38 691,-44 685,-50 679,-50"/>
<text text-anchor="middle" x="587.5" y="-28.4" font-family="Noto Sans CJK SC,WenQuanYi Micro Hei,sans-serif" font-size="12.00" fill="#475569">云端 LLM</text>
<text text-anchor="middle" x="587.5" y="-15.4" font-family="Noto Sans CJK SC,WenQuanYi Micro Hei,sans-serif" font-size="12.00" fill="#475569">OpenAI 兼容 API（可替代本地）</text>
</g>
<!-- voice&#45;&gt;cloud -->
<g id="edge8" class="edge">
<title>voice&#45;&gt;cloud</title>
<path fill="none" stroke="#94a3b8" stroke-width="1.1" stroke-dasharray="5,2" d="M171.15,-50.05C210.09,-62.95 249.5,-76 249.5,-76 249.5,-76 313.5,-76 313.5,-76 313.5,-76 463.5,-50 463.5,-50 463.5,-50 468.14,-49.07 475.62,-47.56"/>
<polygon fill="#94a3b8" stroke="#94a3b8" stroke-width="1.1" points="476.23,-50.47 483.98,-45.87 475.06,-44.64 476.23,-50.47"/>
<text text-anchor="middle" x="281.5" y="-77" font-family="Noto Sans CJK SC,WenQuanYi Micro Hei,sans-serif" font-size="10.00" fill="#94a3b8">api_base 非空</text>
</g>
</g>
</svg>
