<?xml version="1.0" encoding="UTF-8" standalone="no"?>
<!DOCTYPE svg PUBLIC "-//W3C//DTD SVG 1.1//EN"
 "http://www.w3.org/Graphics/SVG/1.1/DTD/svg11.dtd">
<!-- Generated by graphviz version 2.43.0 (0)
 -->
<!-- Title: VoiceChatArchitecture Pages: 1 -->
<svg width="1734pt" height="327pt"
 viewBox="0.00 0.00 1734.25 327.09" xmlns="http://www.w3.org/2000/svg" xmlns:xlink="http://www.w3.org/1999/xlink">
<g id="graph0" class="graph" transform="scale(1 1) rotate(0) translate(36 291.09)">
<title>VoiceChatArchitecture</title>
<polygon fill="white" stroke="transparent" points="-36,36 -36,-291.09 1698.25,-291.09 1698.25,36 -36,36"/>
<text text-anchor="middle" x="831.12" y="-235.09" font-family="Noto Sans CJK SC,WenQuanYi Micro Hei,sans-serif" font-size="20.00">语音对话管线（voice_chat / voice_chat_aec）</text>
<!-- mic -->
<g id="node1" class="node">
<title>mic</title>
<path fill="#e0f2fe" stroke="#0284c7" stroke-width="1.2" d="M9.8,-50.5C9.8,-50.5 47.19,-38.1 47.19,-38.1 52,-36.5 61.62,-36.5 66.43,-38.1 66.43,-38.1 103.82,-50.5 103.82,-50.5 108.63,-52.1 113.43,-58.76 113.42,-63.83 113.42,-63.83 113.4,-73.96 113.4,-73.96 113.39,-79.03 108.32,-84.09 103.25,-84.09 103.25,-84.09 10.37,-84.09 10.37,-84.09 5.31,-84.09 0.23,-79.03 0.22,-73.96 0.22,-73.96 0.2,-63.83 0.2,-63.83 0.2,-58.76 5,-52.1 9.8,-50.5"/>
<text text-anchor="middle" x="56.81" y="-58.99" font-family="Noto Sans CJK SC,WenQuanYi Micro Hei,sans-serif" font-size="12.00" fill="#0f172a">麦克风</text>
</g>
<!-- capture -->
<g id="node3" class="node">
<title>capture</title>
<path fill="#e0f2fe" stroke="#0284c7" stroke-width="1.2" d="M280.62,-84.09C280.62,-84.09 197.62,-84.09 197.62,-84.09 191.62,-84.09 185.62,-78.09 185.62,-72.09 185.62,-72.09 185.62,-52.09 185.62,-52.09 185.62,-46.09 191.62,-40.09 197.62,-40.09 197.62,-40.09 280.62,-40.09 280.62,-40.09 286.62,-40.09 292.62,-46.09 292.62,-52.09 292.62,-52.09 292.62,-72.09 292.62,-72.09 292.62,-78.09 286.62,-84.09 280.62,-84.09"/>
<text text-anchor="middle" x="239.12" y="-65.49" font-family="Noto Sans CJK SC,WenQuanYi Micro Hei,sans-serif" font-size="12.00" fill="#0f172a">AudioCapture</text>
<text text-anchor="middle" x="239.12" y="-52.49" font-family="Noto Sans CJK SC,WenQuanYi Micro Hei,sans-serif" font-size="12.00" fill="#0f172a">音频采集</text>
</g>
<!-- mic&#45;&gt;capture -->
<g id="edge1" class="edge">
<title>mic&#45;&gt;capture</title>
<path fill="none" stroke="#1d4ed8" stroke-width="1.2" d="M113.88,-62.09C133.69,-62.09 156.08,-62.09 176.34,-62.09"/>
<polygon fill="#1d4ed8" stroke="#1d4ed8" stroke-width="1.2" points="176.48,-65.25 185.48,-62.09 176.48,-58.95 176.48,-65.25"/>
<text text-anchor="middle" x="149.62" y="-65.09" font-family="Noto Sans CJK SC,WenQuanYi Micro Hei,sans-serif" font-size="10.00" fill="#1e40af">PCM</text>
</g>
<!-- speaker -->
<g id="node2" class="node">
<title>speaker</title>
<path fill="#ffedd5" stroke="#ea580c" stroke-width="1.2" d="M1652.44,-38.69C1652.44,-38.69 1615.05,-51.09 1615.05,-51.09 1610.25,-52.69 1600.63,-52.69 1595.82,-51.09 1595.82,-51.09 1558.43,-38.69 1558.43,-38.69 1553.62,-37.09 1548.82,-30.43 1548.83,-25.36 1548.83,-25.36 1548.85,-15.23 1548.85,-15.23 1548.86,-10.16 1553.93,-5.1 1559,-5.1 1559,-5.1 1651.87,-5.1 1651.87,-5.1 1656.94,-5.1 1662.02,-10.16 1662.03,-15.23 1662.03,-15.23 1662.04,-25.36 1662.04,-25.36 1662.05,-30.43 1657.25,-37.09 1652.44,-38.69"/>
<text text-anchor="middle" x="1605.44" y="-23.99" font-family="Noto Sans CJK SC,WenQuanYi Micro Hei,sans-serif" font-size="12.00" fill="#0f172a">扬声器</text>
</g>
<!-- speaker&#45;&gt;capture -->
<g id="edge12" class="edge">
<title>speaker&#45;&gt;capture</title>
<path fill="none" stroke="#6b7280" stroke-width="1.2" stroke-dasharray="5,2" d="M1572.98,-43.73C1518.77,-71.4 1403.45,-125.95 1298.62,-147.09 789.88,-249.74 715.95,-187.13 554.62,-162.09 463.78,-148 363.26,-112.29 300.89,-87.6"/>
<polygon fill="#6b7280" stroke="#6b7280" stroke-width="1.2" points="301.87,-84.6 292.34,-84.19 299.54,-90.45 301.87,-84.6"/>
<text text-anchor="middle" x="897.12" y="-217.09" font-family="Noto Sans CJK SC,WenQuanYi Micro Hei,sans-serif" font-size="10.00" fill="#6b7280">AEC 回声参考</text>
<text text-anchor="middle" x="897.12" y="-206.09" font-family="Noto Sans CJK SC,WenQuanYi Micro Hei,sans-serif" font-size="10.00" fill="#6b7280">（voice_chat_aec）</text>
</g>
<!-- vad -->
<g id="node4" class="node">
<title>vad</title>
<path fill="#dcfce7" stroke="#16a34a" stroke-width="1.2" d="M462.62,-84.09C462.62,-84.09 385.62,-84.09 385.62,-84.09 379.62,-84.09 373.62,-78.09 373.62,-72.09 373.62,-72.09 373.62,-52.09 373.62,-52.09 373.62,-46.09 379.62,-40.09 385.62,-40.09 385.62,-40.09 462.62,-40.09 462.62,-40.09 468.62,-40.09 474.62,-46.09 474.62,-52.09 474.62,-52.09 474.62,-72.09 474.62,-72.09 474.62,-78.09 468.62,-84.09 462.62,-84.09"/>
<text text-anchor="middle" x="424.12" y="-65.49" font-family="Noto Sans CJK SC,WenQuanYi Micro Hei,sans-serif" font-size="12.00" fill="#0f172a">VAD</text>
<text text-anchor="middle" x="424.12" y="-52.49" font-family="Noto Sans CJK SC,WenQuanYi Micro Hei,sans-serif" font-size="12.00" fill="#0f172a">语音活动检测</text>
</g>
<!-- capture&#45;&gt;vad -->
<g id="edge2" class="edge">
<title>capture&#45;&gt;vad</title>
<path fill="none" stroke="#1d4ed8" stroke-width="1.2" d="M293.06,-62.09C315.32,-62.09 341.32,-62.09 364.19,-62.09"/>
<polygon fill="#1d4ed8" stroke="#1d4ed8" stroke-width="1.2" points="364.45,-65.25 373.45,-62.09 364.45,-58.95 364.45,-65.25"/>
<text text-anchor="middle" x="333.12" y="-65.09" font-family="Noto Sans CJK SC,WenQuanYi Micro Hei,sans-serif" font-size="10.00" fill="#1e40af">16 kHz</text>
</g>
<!-- vp -->
<g id="node5" class="node">
<title>vp</title>
<path fill="#dcfce7" stroke="#16a34a" stroke-width="1.2" stroke-dasharray="5,2" d="M667.62,-144.09C667.62,-144.09 566.62,-144.09 566.62,-144.09 560.62,-144.09 554.62,-138.09 554.62,-132.09 554.62,-132.09 554.62,-112.09 554.62,-112.09 554.62,-106.09 560.62,-100.09 566.62,-100.09 566.62,-100.09 667.62,-100.09 667.62,-100.09 673.62,-100.09 679.62,-106.09 679.62,-112.09 679.62,-112.09 679.62,-132.09 679.62,-132.09 679.62,-138.09 673.62,-144.09 667.62,-144.09"/>
<text text-anchor="middle" x="617.12" y="-125.49" font-family="Noto Sans CJK SC,WenQuanYi Micro Hei,sans-serif" font-size="12.00" fill="#0f172a">Voiceprint</text>
<text text-anchor="middle" x="617.12" y="-112.49" font-family="Noto Sans CJK SC,WenQuanYi Micro Hei,sans-serif" font-size="12.00" fill="#0f172a">声纹验证（可选）</text>
</g>
<!-- vad&#45;&gt;vp -->
<g id="edge3" class="edge">
<title>vad&#45;&gt;vp</title>
<path fill="none" stroke="#1d4ed8" stroke-width="1.2" stroke-dasharray="5,2" d="M474.81,-77.7C496.37,-84.48 522.02,-92.53 545.5,-99.91"/>
<polygon fill="#1d4ed8" stroke="#1d4ed8" stroke-width="1.2" points="544.86,-103.01 554.39,-102.7 546.75,-97 544.86,-103.01"/>
<text text-anchor="middle" x="514.62" y="-96.09" font-family="Noto Sans CJK SC,WenQuanYi Micro Hei,sans-serif" font-size="10.00" fill="#1e40af">语音段</text>
</g>
<!-- asr -->
<g id="node6" class="node">
<title>asr</title>
<path fill="#dcfce7" stroke="#16a34a" stroke-width="1.2" d="M814.62,-109.09C814.62,-109.09 761.62,-109.09 761.62,-109.09 755.62,-109.09 749.62,-103.09 749.62,-97.09 749.62,-97.09 749.62,-77.09 749.62,-77.09 749.62,-71.09 755.62,-65.09 761.62,-65.09 761.62,-65.09 814.62,-65.09 814.62,-65.09 820.62,-65.09 826.62,-71.09 826.62,-77.09 826.62,-77.09 826.62,-97.09 826.62,-97.09 826.62,-103.09 820.62,-109.09 814.62,-109.09"/>
<text text-anchor="middle" x="788.12" y="-90.49" font-family="Noto Sans CJK SC,WenQuanYi Micro Hei,sans-serif" font-size="12.00" fill="#0f172a">ASR</text>
<text text-anchor="middle" x="788.12" y="-77.49" font-family="Noto Sans CJK SC,WenQuanYi Micro Hei,sans-serif" font-size="12.00" fill="#0f172a">语音识别</text>
</g>
<!-- vad&#45;&gt;asr -->
<g id="edge5" class="edge">
<title>vad&#45;&gt;asr</title>
<path fill="none" stroke="#1d4ed8" stroke-width="1.2" d="M474.97,-62.2C526.36,-62.71 608.74,-64.59 679.62,-71.09 699.65,-72.93 721.63,-76.01 740.47,-78.98"/>
<polygon fill="#1d4ed8" stroke="#1d4ed8" stroke-width="1.2" points="740.05,-82.11 749.44,-80.43 741.05,-75.89 740.05,-82.11"/>
<text text-anchor="middle" x="617.12" y="-74.09" font-family="Noto Sans CJK SC,WenQuanYi Micro Hei,sans-serif" font-size="10.00" fill="#1e40af">语音段</text>
</g>
<!-- tts -->
<g id="node9" class="node">
<title>tts</title>
<path fill="#ffedd5" stroke="#ea580c" stroke-width="1.2" d="M1262.62,-49.09C1262.62,-49.09 1209.62,-49.09 1209.62,-49.09 1203.62,-49.09 1197.62,-43.09 1197.62,-37.09 1197.62,-37.09 1197.62,-17.09 1197.62,-17.09 1197.62,-11.09 1203.62,-5.09 1209.62,-5.09 1209.62,-5.09 1262.62,-5.09 1262.62,-5.09 1268.62,-5.09 1274.62,-11.09 1274.62,-17.09 1274.62,-17.09 1274.62,-37.09 1274.62,-37.09 1274.62,-43.09 1268.62,-49.09 1262.62,-49.09"/>
<text text-anchor="middle" x="1236.12" y="-30.49" font-family="Noto Sans CJK SC,WenQuanYi Micro Hei,sans-serif" font-size="12.00" fill="#0f172a">TTS</text>
<text text-anchor="middle" x="1236.12" y="-17.49" font-family="Noto Sans CJK SC,WenQuanYi Micro Hei,sans-serif" font-size="12.00" fill="#0f172a">语音合成</text>
</g>
<!-- vad&#45;&gt;tts -->
<g id="edge11" class="edge">
<title>vad&#45;&gt;tts</title>
<path fill="none" stroke="#dc2626" stroke-width="1.2" stroke-dasharray="5,2" d="M474.78,-55.73C483.07,-54.77 491.58,-53.85 499.62,-53.09 610.5,-42.64 638.36,-40.91 749.62,-36.09 910.52,-29.14 1101.65,-27.55 1188.29,-27.2"/>
<polygon fill="#dc2626" stroke="#dc2626" stroke-width="1.2" points="1188.35,-30.35 1197.33,-27.16 1188.32,-24.05 1188.35,-30.35"/>
<text text-anchor="middle" x="788.12" y="-39.09" font-family="Noto Sans CJK SC,WenQuanYi Micro Hei,sans-serif" font-size="10.00" fill="#dc2626">barge&#45;in 打断</text>
</g>
<!-- vp&#45;&gt;asr -->
<g id="edge4" class="edge">
<title>vp&#45;&gt;asr</title>
<path fill="none" stroke="#1d4ed8" stroke-width="1.2" stroke-dasharray="5,2" d="M680.09,-109.26C700.01,-105.14 721.73,-100.64 740.36,-96.78"/>
<polygon fill="#1d4ed8" stroke="#1d4ed8" stroke-width="1.2" points="741.07,-99.85 749.24,-94.94 739.79,-93.68 741.07,-99.85"/>
<text text-anchor="middle" x="714.62" y="-106.09" font-family="Noto Sans CJK SC,WenQuanYi Micro Hei,sans-serif" font-size="10.00" fill="#1e40af">通过</text>
</g>
<!-- llm -->
<g id="node7" class="node">
<title>llm</title>
<path fill="#ede9fe" stroke="#7c3aed" stroke-width="1.2" d="M1044.62,-109.09C1044.62,-109.09 979.62,-109.09 979.62,-109.09 973.62,-109.09 967.62,-103.09 967.62,-97.09 967.62,-97.09 967.62,-77.09 967.62,-77.09 967.62,-71.09 973.62,-65.09 979.62,-65.09 979.62,-65.09 1044.62,-65.09 1044.62,-65.09 1050.62,-65.09 1056.62,-71.09 1056.62,-77.09 1056.62,-77.09 1056.62,-97.09 1056.62,-97.09 1056.62,-103.09 1050.62,-109.09 1044.62,-109.09"/>
<text text-anchor="middle" x="1012.12" y="-90.49" font-family="Noto Sans CJK SC,WenQuanYi Micro Hei,sans-serif" font-size="12.00" fill="#0f172a">LLM</text>
<text text-anchor="middle" x="1012.12" y="-77.49" font-family="Noto Sans CJK SC,WenQuanYi Micro Hei,sans-serif" font-size="12.00" fill="#0f172a">大模型对话</text>
</g>
<!-- asr&#45;&gt;llm -->
<g id="edge6" class="edge">
<title>asr&#45;&gt;llm</title>
<path fill="none" stroke="#1d4ed8" stroke-width="1.2" d="M826.78,-87.09C862.93,-87.09 917.87,-87.09 958.37,-87.09"/>
<polygon fill="#1d4ed8" stroke="#1d4ed8" stroke-width="1.2" points="958.56,-90.25 967.56,-87.09 958.56,-83.95 958.56,-90.25"/>
<text text-anchor="middle" x="897.12" y="-90.09" font-family="Noto Sans CJK SC,WenQuanYi Micro Hei,sans-serif" font-size="10.00" fill="#1e40af">文本</text>
</g>
<!-- mcp -->
<g id="node8" class="node">
<title>mcp</title>
<path fill="#ede9fe" stroke="#7c3aed" stroke-width="1.2" stroke-dasharray="5,2" d="M1286.62,-129.09C1286.62,-129.09 1185.62,-129.09 1185.62,-129.09 1179.62,-129.09 1173.62,-123.09 1173.62,-117.09 1173.62,-117.09 1173.62,-97.09 1173.62,-97.09 1173.62,-91.09 1179.62,-85.09 1185.62,-85.09 1185.62,-85.09 1286.62,-85.09 1286.62,-85.09 1292.62,-85.09 1298.62,-91.09 1298.62,-97.09 1298.62,-97.09 1298.62,-117.09 1298.62,-117.09 1298.62,-123.09 1292.62,-129.09 1286.62,-129.09"/>
<text text-anchor="middle" x="1236.12" y="-110.49" font-family="Noto Sans CJK SC,WenQuanYi Micro Hei,sans-serif" font-size="12.00" fill="#0f172a">MCP</text>
<text text-anchor="middle" x="1236.12" y="-97.49" font-family="Noto Sans CJK SC,WenQuanYi Micro Hei,sans-serif" font-size="12.00" fill="#0f172a">工具调用（可选）</text>
</g>
<!-- llm&#45;&gt;mcp -->
<g id="edge7" class="edge">
<title>llm&#45;&gt;mcp</title>
<path fill="none" stroke="#7c3aed" stroke-width="1.2" stroke-dasharray="5,2" d="M1066,-91.86C1095.41,-94.51 1132.4,-97.84 1164.29,-100.71"/>
<polygon fill="#7c3aed" stroke="#7c3aed" stroke-width="1.2" points="1065.97,-88.69 1056.72,-91.02 1065.4,-94.97 1065.97,-88.69"/>
<polygon fill="#7c3aed" stroke="#7c3aed" stroke-width="1.2" points="1164.32,-103.88 1173.57,-101.55 1164.88,-97.6 1164.32,-103.88"/>
<text text-anchor="middle" x="1115.12" y="-101.09" font-family="Noto Sans CJK SC,WenQuanYi Micro Hei,sans-serif" font-size="10.00" fill="#7c3aed">工具调用 / 结果</text>
</g>
<!-- llm&#45;&gt;tts -->
<g id="edge8" class="edge">
<title>llm&#45;&gt;tts</title>
<path fill="none" stroke="#1d4ed8" stroke-width="1.2" d="M1056.72,-75.31C1094.71,-65.04 1149.66,-50.19 1188.52,-39.69"/>
<polygon fill="#1d4ed8" stroke="#1d4ed8" stroke-width="1.2" points="1189.67,-42.64 1197.54,-37.25 1188.03,-36.56 1189.67,-42.64"/>
<text text-anchor="middle" x="1115.12" y="-70.09" font-family="Noto Sans CJK SC,WenQuanYi Micro Hei,sans-serif" font-size="10.00" fill="#1e40af">回复</text>
</g>
<!-- player -->
<g id="node10" class="node">
<title>player</title>
<path fill="#ffedd5" stroke="#ea580c" stroke-width="1.2" d="M1464.62,-49.09C1464.62,-49.09 1391.62,-49.09 1391.62,-49.09 1385.62,-49.09 1379.62,-43.09 1379.62,-37.09 1379.62,-37.09 1379.62,-17.09 1379.62,-17.09 1379.62,-11.09 1385.62,-5.09 1391.62,-5.09 1391.62,-5.09 1464.62,-5.09 1464.62,-5.09 1470.62,-5.09 1476.62,-11.09 1476.62,-17.09 1476.62,-17.09 1476.62,-37.09 1476.62,-37.09 1476.62,-43.09 1470.62,-49.09 1464.62,-49.09"/>
<text text-anchor="middle" x="1428.12" y="-30.49" font-family="Noto Sans CJK SC,WenQuanYi Micro Hei,sans-serif" font-size="12.00" fill="#0f172a">AudioPlayer</text>
<text text-anchor="middle" x="1428.12" y="-17.49" font-family="Noto Sans CJK SC,WenQuanYi Micro Hei,sans-serif" font-size="12.00" fill="#0f172a">音频播放</text>
</g>
<!-- tts&#45;&gt;player -->
<g id="edge9" class="edge">
<title>tts&#45;&gt;player</title>
<path fill="none" stroke="#1d4ed8" stroke-width="1.2" d="M1274.66,-27.09C1301.91,-27.09 1339.26,-27.09 1370.17,-27.09"/>
<polygon fill="#1d4ed8" stroke="#1d4ed8" stroke-width="1.2" points="1370.54,-30.25 1379.54,-27.09 1370.54,-23.95 1370.54,-30.25"/>
<text text-anchor="middle" x="1339.12" y="-30.09" font-family="Noto Sans CJK SC,WenQuanYi Micro Hei,sans-serif" font-size="10.00" fill="#1e40af">48 kHz</text>
</g>
<!-- player&#45;&gt;speaker -->
<g id="edge10" class="edge">
<title>player&#45;&gt;speaker</title>
<path fill="none" stroke="#1d4ed8" stroke-width="1.2" d="M1477.03,-27.09C1496.28,-27.09 1518.78,-27.09 1539.47,-27.09"/>
<polygon fill="#1d4ed8" stroke="#1d4ed8" stroke-width="1.2" points="1539.51,-30.25 1548.51,-27.09 1539.51,-23.95 1539.51,-30.25"/>
<text text-anchor="middle" x="1512.62" y="-30.09" font-family="Noto Sans CJK SC,WenQuanYi Micro Hei,sans-serif" font-size="10.00" fill="#1e40af">PCM</text>
</g>
</g>
</svg>
